<svg width="1755" height="58" viewBox="0 0 1755 58" fill="none" xmlns="http://www.w3.org/2000/svg">
<rect x="849" y="29" width="40" height="40" transform="rotate(-45 849 29)" fill="#DDDABC"/>
<path d="M934 28.5L906 56.5L970 28.5L906 1L934 28.5Z" fill="#DDDABC" stroke="#DDDABC"/>
<path d="M821 28.5L849 56.5L785 28.5L849 1L821 28.5Z" fill="#DDDABC" stroke="#DDDABC"/>
<path d="M985 23L997 28V29L985 34.5L1005 29V28L985 23Z" fill="#DDDABC"/>
<rect x="1005" y="28" width="750" height="1" fill="#DDDABC"/>
<path d="M770 23L758 28V29L770 34.5L750 29V28L770 23Z" fill="#DDDABC"/>
<rect width="750" height="1" transform="matrix(-1 0 0 1 750 28)" fill="#DDDABC"/>
</svg>
